<?xml version="1.0" encoding="UTF-8" standalone="no" ?>
<!DOCTYPE svg PUBLIC "-//W3C//DTD SVG 1.1//EN" "http://www.w3.org/Graphics/SVG/1.1/DTD/svg11.dtd">
<svg xmlns="http://www.w3.org/2000/svg" xmlns:xlink="http://www.w3.org/1999/xlink" version="1.1" width="1280" height="1024" viewBox="0 0 1280 1024" xml:space="preserve">
<desc>Created with Fabric.js 5.3.0</desc>
<defs>
</defs>
<g transform="matrix(1 0 0 1 640 512)" id="background-logo"  >
<rect style="stroke: none; stroke-width: 0; stroke-dasharray: none; stroke-linecap: butt; stroke-dashoffset: 0; stroke-linejoin: miter; stroke-miterlimit: 4; fill: rgb(24,24,40); fill-rule: nonzero; opacity: 1;"  paint-order="stroke"  x="-640" y="-512" rx="0" ry="0" width="1280" height="1024" />
</g>
<g transform="matrix(1.9211538461538462 0 0 1.9211538461538462 640 395.4588053723426)" id="logo-logo"  >
<g style=""  paint-order="stroke"   >
		<g transform="matrix(1.1290945218099508 0 0 1.1290945218099508 0 -8.468277788340458)"  >
<radialGradient id="SVGID_7_272648" gradientUnits="userSpaceOnUse" gradientTransform="matrix(1 0 0 1 0 0)"  cx="328.3302307" cy="410.7767029" r="157.0949097" fx="328.3302307" fy="410.7767029">
<stop offset="0%" style="stop-color:rgb(255,211,123);stop-opacity: 1"/>
<stop offset="16.775100000000002%" style="stop-color:rgb(241,199,115);stop-opacity: 1"/>
<stop offset="48.77078%" style="stop-color:rgb(202,169,93);stop-opacity: 1"/>
<stop offset="92.33447%" style="stop-color:rgb(141,120,59);stop-opacity: 1"/>
<stop offset="100%" style="stop-color:rgb(130,111,52);stop-opacity: 1"/>
</radialGradient>
<path style="stroke: none; stroke-width: 1; stroke-dasharray: none; stroke-linecap: butt; stroke-dashoffset: 0; stroke-linejoin: miter; stroke-miterlimit: 4; fill: url(#SVGID_7_272648); fill-rule: nonzero; opacity: 1;"  paint-order="stroke"  transform=" translate(-297.6500015, -413.4499512)" d="M 216.5634766 363.3098755 C 215.1084595 363.8361511 213.9674988 362.01208499999996 215.0677948 360.9242554 C 236.2860107 339.9464722 265.4551086 326.9938355 297.6500244 326.9938355 C 330.9394226 326.9938355 360.9937744 340.8421021 382.3684387 363.0913086 C 382.9346618 363.6806946 382.3062134 364.6324768 381.5412903 364.3446655 C 354.8680115 354.30868530000004 326.38949590000004 349.18408200000005 297.6500244 349.18408200000005 C 269.9155273 349.184082 242.4240417 353.956543 216.5634766 363.3098755 z M 401.2223816 499.9060669 C 405.1132813 492.6528931 408.2687378 484.9463806 410.580658 476.8826904 C 411.0465088 475.2578735 410.3180848 473.5174865 408.82443240000003 472.7262878 C 396.3580933 466.1229248 383.52771 460.606018 370.48751830000003 456.2265014 L 370.48751830000003 475.8128051 L 401.22238160000006 475.8128051 L 401.22238160000006 499.9060669 z M 194.0774384 491.4270935 L 224.1170044 491.4270935 L 224.1170044 456.4633179 C 211.31620790000002 460.8048706 198.72006230000002 466.2407837 186.47543340000001 472.726471 C 184.9818726 473.5175782 184.25358590000002 475.257721 184.7193909 476.8824158 C 187.03123480000002 484.94601439999997 190.18661500000002 492.6524353 194.0774384 499.9054871 L 194.0774384 491.4270935 z M 224.114975 441.4677734 L 247.8096924 441.4677734 C 260.0270691 441.4677734 263.7070007 441.908844 263.7070007 438.6673584 L 263.7070007 403.7904358 L 271.34228509999997 397.5337525 C 240.70669549999997 401.2289124 210.49897759999996 411.2686768 182.93460079999997 426.7934876 C 181.95565789999998 427.3448487 181.28633109999998 428.3274842 181.14373779999997 429.4419251 C 180.51449589999996 434.3596802 180.18412779999997 439.37078859999997 180.18412779999997 444.4596558 C 180.18412779999997 450.8976136 180.70278929999998 457.214264 181.69932559999998 463.3708191 C 181.85554509999997 464.3358765 182.91757209999997 464.8536377 183.78561409999998 464.4039002 C 196.89941409999997 457.6099549 210.38479619999998 452.0340577 224.11497509999998 447.68884280000003 L 224.11497509999998 441.4677734 z M 412.3661194 426.7938538 C 379.5389099 408.3050538 342.9625855 397.6021119 306.3793945 396.12396240000004 L 306.3793945 418.7621765 L 330.4722595 438.5105286 C 331.05505370000003 438.5905457 331.6372986 438.67547609999997 332.2196045 438.7596741 L 332.2196045 415.8608399 L 370.4880066 415.8608399 L 370.4880066 447.47280889999996 C 384.4587708 451.8491822 398.1790161 457.4954529 411.5145874 464.40402229999995 C 412.3825989 464.8536682999999 413.4444885 464.33602909999996 413.600708 463.37103279999997 C 414.5972595 457.2144166 415.1158752 450.89767459999996 415.1158752 444.45965579999995 C 415.1158752 439.370575 414.7855224 434.35925299999997 414.1562805 429.4412841999999 C 414.0137329 428.327179 413.3447571 427.3450317 412.3661194 426.7938538 z M 306.3793945 368.8227539 L 306.3793945 389.5188293 C 342.1728515 390.81414789999997 377.4848022 400.0648498 409.81533809999996 416.9724426 C 410.73907469999995 417.45553590000003 411.79962149999994 416.62448120000005 411.544403 415.61376950000005 C 408.0376281 401.72518920000005 402.0566711 388.82226560000004 394.0985717 377.39846800000004 C 393.4878844 376.5218201 392.6460571 375.82879640000004 391.6726989 375.3883056 C 362.2783813 362.08596800000004 329.9396667 354.85287470000003 297.6500243 354.85287470000003 C 265.3603819 354.85287470000003 233.02163679999998 362.08596800000004 203.627365 375.3883056 C 202.6540068 375.8287963 201.81217949999998 376.52182000000005 201.2014922 377.39846800000004 C 193.3429717 388.6793213 187.4124602 401.40252680000003 183.88845809999998 415.092865 C 183.57870469999997 416.2962341 184.8453673 417.3044434 185.94770799999998 416.730957 C 215.6351317 401.2863464 247.82206709999997 392.2888183 280.57785019999994 389.9657287 L 306.3793945 368.8227539 z" stroke-linecap="round" />
</g>
		<g transform="matrix(1.1290945218099508 0 0 1.1290945218099508 -0.0006202116207987274 21.85921890716827)"  >
<path style="stroke: none; stroke-width: 1; stroke-dasharray: none; stroke-linecap: butt; stroke-dashoffset: 0; stroke-linejoin: miter; stroke-miterlimit: 4; fill: rgb(130,111,52); fill-rule: nonzero; opacity: 1;"  paint-order="stroke"  transform=" translate(-297.64945220000004, -440.309967)" d="M 371.9601135 474.337738 L 371.9601135 414.3886108 L 330.7476501 414.3886108 L 330.7476501 436.8331909 L 307.85137929999996 418.06533809999996 L 307.85137929999996 365.7137451 L 262.23516839999996 403.0936279 L 262.23516839999996 439.9957885 L 222.64300529999997 439.9957885 L 222.64300529999997 489.95336910000003 L 192.60609429999997 489.95336910000003 L 192.60609429999997 497.0782775 C 193.26283259999997 498.3866881 193.94216909999997 499.6808166 194.64471429999998 500.9600524 C 195.27404779999998 502.106018 197.02023309999998 501.6548766 197.02023309999998 500.3474731 L 197.02023309999998 496.2257385 C 197.02023309999998 495.20233149999996 197.84986869999997 494.37271119999997 198.8732757 494.37271119999997 L 220.7899627 494.37271119999997 C 221.81336969999998 494.37271119999997 222.6430053 495.2023316 222.6430053 496.2257385 L 222.6430053 510.4920654 C 222.6430053 511.7109985 223.6311492 512.6991577 224.8500823 512.6991577 L 224.8552855 512.6991577 C 226.07420330000002 512.6991577 227.0623473 511.7109985 227.0623473 510.4920654 L 227.0623473 446.268158 C 227.0623473 445.244751 227.8919829 444.4151001 228.9153899 444.4151001 L 260.382141 444.4151001 C 261.405548 444.4151001 262.2351683 445.244751 262.2351683 446.268158 L 262.2351683 472.311554 C 262.2351683 473.5304871 263.223297 474.5186158 264.4422301 474.5186158 L 264.44744860000003 474.5186158 C 265.6663512 474.5186158 266.65451040000005 473.5304871 266.65451040000005 472.311554 L 266.65451040000005 406.0584717 C 266.65451040000005 405.50320439999996 266.90350330000007 404.9772034 267.33294670000004 404.6252442 L 300.40441890000005 377.5217896 C 301.61407470000006 376.5304261 303.43203730000005 377.3910218 303.43203730000005 378.95501709999996 L 303.43203730000005 504.8004456 C 303.43203730000005 506.0193787 304.42016600000005 507.0075074 305.63909910000007 507.0075074 L 305.6443176000001 507.0075074 C 306.86322020000006 507.0075074 307.8513794000001 506.0193787 307.8513794000001 504.8004456 L 307.8513794000001 427.6871033 C 307.8513794000001 426.1231079 309.6693726000001 425.2625122 310.8790283000001 426.2539063 L 336.8911133000001 447.5725098 L 343.95556640000007 453.36245729999996 C 344.3850098000001 453.71441649999997 344.6339722000001 454.24038699999994 344.6339722000001 454.7956238 L 344.6339722000001 483.75646969999997 C 344.6339722000001 484.97537229999995 345.62213140000006 485.9635315 346.8410340000001 485.9635315 L 346.8410645000001 485.9635315 C 348.05996710000005 485.9635315 349.0481263000001 484.9753723 349.0481263000001 483.75646969999997 L 349.0481263000001 454.14978019999995 C 349.0481263000001 452.6785277999999 348.3887025000001 451.2847593999999 347.2512208000001 450.35165399999994 L 346.1296693000001 449.4316405999999 L 335.1669923000001 440.44757079999994 L 335.1669923000001 420.66101069999996 C 335.1669923000001 419.63760369999994 335.9966127000001 418.80795279999995 337.0200196000001 418.80795279999995 L 365.6877442000001 418.80795279999995 C 366.71115120000013 418.80795279999995 367.5407715000001 419.63760369999994 367.5407715000001 420.66101069999996 L 367.5407715000001 512.6991577 C 367.5407715000001 513.9180298 368.5289307000001 514.9061889 369.7478638000001 514.9061889 L 369.7530518000001 514.9061889 C 370.9719849000001 514.9061889 371.9601136000001 513.9180296999999 371.9601136000001 512.6991577 L 371.9601136000001 480.6101074 C 371.9601136000001 479.5867004 372.7897645000001 478.7570495 373.8131715000001 478.7570495 L 396.4256593000001 478.7570495 C 397.44906630000014 478.7570495 398.2786866000001 479.5867004 398.2786866000001 480.6101074 L 398.2786866000001 500.3475952 C 398.2786866000001 501.6549988 400.0248719000001 502.1061401 400.65420540000014 500.9602051 C 401.35678110000015 499.6809082 402.03613290000015 498.3867493 402.69281010000014 497.0782776 L 402.69281010000014 474.337738 L 371.9601135 474.337738 z" stroke-linecap="round" />
</g>
</g>
</g>
<g transform="matrix(1.9211538461538462 0 0 1.9211538461538462 643.1382048076921 695.115921841926)" id="text-logo"  >
<g style=""  paint-order="stroke"   >
		<g transform="matrix(1 0 0 1 0 0)" id="text-logo-path-0"  >
<path style="stroke: rgb(252,212,124); stroke-width: 5; stroke-dasharray: none; stroke-linecap: butt; stroke-dashoffset: 0; stroke-linejoin: miter; stroke-miterlimit: 4; fill: rgb(255,255,255); fill-rule: nonzero; opacity: 1;"  paint-order="stroke"  transform=" translate(-216.89000000000001, 18.9)" d="M 3.24 -37.8 L 3.24 0 L 8.1 0 L 8.1 -14.85 L 17.39 -14.85 L 27 0 L 33.75 0 L 33.75 -4.32 L 29.97 -4.32 L 22.9 -15.23 C 28.03 -16.42 31.21 -20.52 31.21 -26.35 C 31.21 -33.26 26.62 -37.8 19.71 -37.8 Z M 8.1 -19.17 L 8.1 -33.48 L 19.01 -33.48 C 23.22 -33.48 26.08 -30.67 26.08 -26.35 C 26.08 -21.98 23.22 -19.17 19.01 -19.17 Z M 43.42 -37.8 L 43.42 0 L 48.28 0 L 48.28 -37.8 Z M 86.72 -37.8 L 57.02 -37.8 L 57.02 -33.48 L 69.44 -33.48 L 69.44 0 L 74.3 0 L 74.3 -33.48 L 86.72 -33.48 Z M 122.09 -37.8 L 92.39 -37.8 L 92.39 -33.48 L 104.81 -33.48 L 104.81 0 L 109.67 0 L 109.67 -33.48 L 122.09 -33.48 Z M 130.9 -37.8 L 130.9 0 L 156.55 0 L 156.55 -4.32 L 135.76 -4.32 L 135.76 -17.55 L 154.39 -17.55 L 154.39 -21.87 L 135.76 -21.87 L 135.76 -33.48 L 156.01 -33.48 L 156.01 -37.8 Z M 166.64 -37.8 L 166.64 0 L 171.5 0 L 171.5 -14.85 L 180.79 -14.85 L 190.4 0 L 197.15 0 L 197.15 -4.32 L 193.37 -4.32 L 186.3 -15.23 C 191.43 -16.42 194.62 -20.52 194.62 -26.35 C 194.62 -33.26 190.03 -37.8 183.11 -37.8 Z M 171.5 -19.17 L 171.5 -33.48 L 182.41 -33.48 C 186.62 -33.48 189.49 -30.67 189.49 -26.35 C 189.49 -21.98 186.62 -19.17 182.41 -19.17 Z M 223.02 -37.8 L 223.02 0 L 227.88 0 L 227.88 -14.85 L 237.17 -14.85 L 246.78 0 L 253.53 0 L 253.53 -4.32 L 249.75 -4.32 L 242.68 -15.23 C 247.81 -16.42 250.99 -20.52 250.99 -26.35 C 250.99 -33.26 246.4 -37.8 239.49 -37.8 Z M 227.88 -19.17 L 227.88 -33.48 L 238.79 -33.48 C 243 -33.48 245.86 -30.67 245.86 -26.35 C 245.86 -21.98 243 -19.17 238.79 -19.17 Z M 263.2 -37.8 L 263.2 0 L 288.85 0 L 288.85 -4.32 L 268.06 -4.32 L 268.06 -17.55 L 286.69 -17.55 L 286.69 -21.87 L 268.06 -21.87 L 268.06 -33.48 L 288.31 -33.48 L 288.31 -37.8 Z M 309.91 -37.8 L 295.87 0 L 301.05 0 L 303.86 -7.83 L 322.22 -7.83 L 325.03 0 L 330.21 0 L 316.17 -37.8 Z M 305.37 -12.15 L 313.04 -33.59 L 320.71 -12.15 Z M 339.01 -37.8 L 339.01 0 L 364.12 0 L 364.12 -4.32 L 343.87 -4.32 L 343.87 -37.8 Z M 392.47 -37.8 L 362.77 -37.8 L 362.77 -33.48 L 375.19 -33.48 L 375.19 0 L 380.05 0 L 380.05 -33.48 L 392.47 -33.48 Z M 397.82 -37.8 L 411.75 -16.69 L 411.75 0 L 416.61 0 L 416.61 -16.69 L 430.54 -37.8 L 424.71 -37.8 L 414.18 -21.33 L 403.65 -37.8 Z" stroke-linecap="round" />
</g>
</g>
</g>
</svg>